<?xml version="1.0" encoding="UTF-8"?>
<!DOCTYPE svg PUBLIC "-//W3C//DTD SVG 1.1//EN" "http://www.w3.org/Graphics/SVG/1.1/DTD/svg11.dtd">
<!-- Creator: CorelDRAW 2021 (64-Bit) -->
<svg xmlns="http://www.w3.org/2000/svg" xml:space="preserve" width="176.389mm" height="176.389mm" version="1.1" style="shape-rendering:geometricPrecision; text-rendering:geometricPrecision; image-rendering:optimizeQuality; fill-rule:evenodd; clip-rule:evenodd"
viewBox="0 0 17638.88 17638.88"
 xmlns:xlink="http://www.w3.org/1999/xlink"
 xmlns:xodm="http://www.corel.com/coreldraw/odm/2003">
 <defs>
  <style type="text/css">
   <![CDATA[
    .str0 {stroke:#99FF00;stroke-width:44.03;stroke-linecap:round;stroke-miterlimit:10;stroke-dasharray:143.990000 321.860000}
    .fil1 {fill:none;fill-rule:nonzero}
    .fil0 {fill:#ECC485;fill-rule:nonzero}
    .fil2 {fill:#99FF00;fill-rule:nonzero}
   ]]>
  </style>
 </defs>
 <g id="Capa_x0020_1">
  <metadata id="CorelCorpID_0Corel-Layer"/>
  <path class="fil0" d="M9360.45 8349.49l134.93 134.99 158.5 -158.5c-66.08,-19.14 -130.58,-45.03 -192.36,-77.56l-101.07 101.07z"/>
  <path class="fil0" d="M9926.81 8253.52c85.81,0 171.57,-32.71 237,-98.18l538.66 -538.63c17.09,-17.08 17.09,-44.81 0,-61.95l-7.52 -7.48c-8.54,-8.54 -19.72,-12.81 -30.95,-12.81 -11.19,0 -22.42,4.27 -30.96,12.81l-498.2 498.21 -70.71 -70.66 498.2 -498.26c17.09,-17.12 17.09,-44.81 0,-61.9 -8.53,-8.54 -19.77,-12.82 -30.95,-12.82 -11.18,0 -22.4,4.28 -30.95,12.82l-498.2 498.21 -70.49 -70.44 498.25 -498.21c17.09,-17.13 17.09,-44.83 0,-61.91 -8.53,-8.57 -19.77,-12.85 -30.95,-12.85 -11.23,0 -22.41,4.28 -30.95,12.85l-498.25 498.22 -70.44 -70.45 498.24 -498.25c17.09,-17.08 17.09,-44.82 0,-61.91l-7.52 -7.47c-8.54,-8.59 -19.77,-12.86 -30.99,-12.86 -11.18,0 -22.37,4.27 -30.92,12.86l-538.66 538.62c-76.79,76.78 -108.49,181.44 -95.24,281.42 10.89,81.98 -11.67,164.8 -70.14,223.25l-62.65 62.67c61.78,32.53 126.28,58.42 192.36,77.56l0 0c60.05,-60.04 144.77,-86.37 228.95,-75.33 14.56,1.9 29.28,2.87 43.98,2.87z"/>
  <path class="fil0" d="M10702.47 7616.71c17.09,-17.08 17.09,-44.81 0,-61.95l-7.52 -7.48c-8.54,-8.54 -19.72,-12.81 -30.95,-12.81 -11.19,0 -22.42,4.27 -30.96,12.81l-498.2 498.21 -70.71 -70.66 498.2 -498.26c17.09,-17.12 17.09,-44.81 0,-61.9 -8.53,-8.54 -19.77,-12.85 -30.95,-12.85 -11.18,0 -22.4,4.31 -30.95,12.85l-498.2 498.21 -70.49 -70.44 498.2 -498.21c17.14,-17.13 17.14,-44.83 0,-61.91 -8.48,-8.57 -19.72,-12.85 -30.9,-12.85 -11.23,0 -22.41,4.28 -30.95,12.85l-498.25 498.22 -70.44 -70.45 498.24 -498.25c17.09,-17.08 17.09,-44.82 0,-61.91l-7.52 -7.47c-8.54,-8.59 -19.77,-12.86 -30.99,-12.86 -11.18,0 -22.37,4.27 -30.95,12.86l-538.63 538.62c-21.41,21.4 -38.93,45.13 -53.32,70.18l457.44 457.43c25.06,-14.44 48.78,-31.96 70.14,-53.35l538.66 -538.63z"/>
  <path class="fil0" d="M9594.31 7962.5c10.89,81.98 -11.67,164.8 -70.14,223.25l-62.65 62.67c61.78,32.53 126.28,58.42 192.36,77.56 60.05,-60.04 144.77,-86.37 228.95,-75.33 14.56,1.9 29.28,2.87 43.98,2.87 57.76,0 115.3,-15.19 166.86,-44.83l-457.44 -457.43c-37.29,64.76 -51.46,139.13 -41.92,211.24z"/>
  <path class="fil0" d="M8029.77 9680.17c-41.65,41.65 -37.12,112.01 14.23,146.97 15.57,10.56 33.41,15.57 51.33,15.57 26.19,0 52.44,-10.64 71.89,-30.11l700.03 -699.98c-71.02,-14.27 -140.93,-34.25 -208.77,-61.16l-628.71 628.71z"/>
  <path class="fil0" d="M8993.52 8716.42l-335.04 335.04c67.84,26.91 137.75,46.89 208.77,61.16l287.76 -287.76c-54.59,-31.7 -108.52,-68.12 -161.49,-108.44z"/>
  <path class="fil0" d="M10570.92 9680.17l-2405.51 -2405.5c-5.32,-5.29 -11.18,-7.66 -16.91,-7.66 -11.96,0 -23.58,10.17 -29.62,24.64 -56.7,136.76 648.3,1435.29 1366.42,1572.84l947.03 947.01c19.85,19.82 46.83,30.83 73.52,30.83 18.72,0 37.29,-5.38 53.19,-16.86 49.13,-35.5 52.88,-104.31 11.88,-145.3z"/>
  <path class="fil0" d="M10570.92 9680.17l-2405.51 -2405.5c-5.32,-5.29 -11.18,-7.66 -16.91,-7.66 -6.37,0 -12.58,3.03 -17.95,7.92l2444.16 2536.36c33.64,-37.52 32.28,-95.06 -3.79,-131.12z"/>
  <path class="fil0" d="M9358.46 6162.02c-1245.17,0 -2258.2,1013.01 -2258.2,2258.19 0,1245.17 1013.03,2258.18 2258.2,2258.18 1245.17,0 2258.19,-1013.01 2258.19,-2258.18 0,-1245.18 -1013.02,-2258.19 -2258.19,-2258.19zm0 4564.64c-1271.77,0 -2306.46,-1034.69 -2306.46,-2306.45 0,-1271.81 1034.69,-2306.45 2306.46,-2306.45 1271.81,0 2306.45,1034.64 2306.45,2306.45 0,1271.76 -1034.64,2306.45 -2306.45,2306.45z"/>
  <path class="fil1 str0" d="M9358.46 10550.54c-1174.64,0 -2130.35,-955.64 -2130.35,-2130.33 0,-1174.64 955.71,-2130.35 2130.35,-2130.35 1174.69,0 2130.33,955.71 2130.33,2130.35 0,1174.69 -955.64,2130.33 -2130.33,2130.33z"/>
  <path class="fil2" d="M7682.39 6318.19c-11.03,13.21 -19.72,23.62 -26.05,31.03 -6.25,7.52 -13.9,17.81 -22.64,30.57 -8.86,12.85 -16.7,25.57 -23.49,38.16 -6.81,12.59 -14.11,28.09 -22.05,46.83l-48.06 -36.63c-5.43,-4.05 -10.5,-7.67 -15.26,-10.96 -4.66,-3.39 -14.04,-9.34 -28.32,-18.1 -9.89,7.07 -22.98,16.16 -39.37,27.35 -16.4,11.21 -29.33,20.92 -38.67,29.04l-81.6 70.94c4.25,22.45 8.3,44.88 12.45,67.41l13.9 63.83c-13.32,-0.62 -25.38,-0.44 -35.95,0.56 -10.7,1.09 -21.77,3.27 -33.53,6.62 -11.86,3.26 -22.23,6.94 -31.29,11 -9.06,4.06 -18.62,9.51 -28.67,16.16 -2.74,-14.99 -4.92,-26.07 -6.47,-33.11 -1.55,-7.05 -4,-17.33 -7.45,-30.74 -1.94,-7.07 -3.82,-14.04 -5.66,-21.2 -1.96,-7.08 -3.9,-14.37 -6.15,-21.57l-96.55 -55.31 64.18 -35.01c-12.51,-44.44 -24.57,-85.1 -36.11,-121.62 -11.52,-36.73 -25.13,-76.96 -40.74,-120.82 -10.06,-28.25 -21.05,-58 -33.05,-89.36 -11.89,-31.43 -24.01,-60.96 -36.07,-88.43l47.2 -54.78c16.24,-20.8 30.33,-39.92 42.28,-57.56l30.35 24.36c27.11,21.08 55.72,40.85 86.19,59.19 19.09,11.44 46.48,26.92 81.96,46.45 39.12,21.5 69.64,38.85 91.47,52.1 41.36,24.52 71.03,42.41 88.93,53.57 32.59,19.92 61.8,38.6 87.4,56.42 18.06,13.1 36.15,25.79 54.15,38.38 6.85,4.34 14.48,8.96 23.01,13.95 8.33,4.96 15,8.7 19.73,11.28zm-294.64 11.76l-75.68 -47.33 -92.1 -60.72c5.68,16.62 11.28,32.94 16.77,49.33 4.08,11.73 10.27,28.29 18.38,49.46 9.23,24.22 14.92,39.11 17,44.36 5.66,14.17 11.86,29 18.73,44.57l43.19 -35.25 53.71 -44.42zm706.68 -389.11c1.92,26.52 3.83,52.74 5.52,78.88 2.21,14.7 4.39,26.76 6.53,36.17 2.15,9.42 5.35,21.53 9.59,36.56l-39.61 28.99c-1.36,0.79 -24.26,18.43 -68.53,53.14 -25.04,19.37 -50.98,36.94 -77.74,52.48 -23.15,13.45 -53.93,30.99 -92.24,52.75 -38.44,21.83 -64.72,36.76 -78.79,44.93l-21.69 -82.63 -14.88 -60.29 19.31 -15.21 -62.41 -124.92c-24.3,-41.82 -43.97,-76.86 -58.86,-105.34 -15,-28.42 -31.1,-61.85 -48.46,-100.05 -7.23,-16.45 -14.57,-33.66 -21.78,-52.12 -7.35,-18.38 -12.83,-31.84 -16.54,-40.5l43.19 -37.74c19.4,-14.44 38.87,-29.08 58.45,-44.13 17.36,-15.4 33.75,-31.59 49,-48.6 7.53,26.11 15.21,51.94 22.87,77.46 13.66,39.85 23.85,67.72 30.47,83.7 10.05,24.46 23.45,50.98 39.94,79.37 6.43,11.07 13.71,23.32 21.72,36.82 8.06,13.3 16.91,27.97 26.49,43.88 10.49,18.05 17.62,30.91 21.32,38.42 3.7,7.51 9.92,20.53 18.45,39.23 1.59,3.57 6.47,13.72 14.68,30.43 8.22,16.7 13.75,27.97 16.71,33.91 17.05,-9.91 29.43,-17.25 36.89,-21.93 37.11,-23.22 56.55,-35.34 58.16,-36.29 18.18,-10.55 35.81,-22.63 52.96,-36.08 3.99,-3.15 20.42,-17.02 49.28,-41.29zm771.29 -744.57c-4.17,16.61 -7.36,30.35 -9.52,41.48 -2.35,11.03 -4.21,24.16 -5.89,39.31 -2.3,17.67 -3.84,32.21 -4.64,43.46 -0.79,11.42 -0.94,25.49 -0.8,42.14l-125.59 28.86c4.31,18.8 10.09,54.86 17.59,108.09 3.73,26.47 7.73,49.04 11.98,67.56 10.16,44.2 17.27,89.24 21.45,135.11 4.21,46.01 8.39,91.87 12.61,137.87 -12.15,7.53 -24.92,15.62 -38.42,24.34 -9.41,6.01 -21.93,14.51 -37.76,25.38 -13.02,8.9 -24.23,16.65 -33.37,23.19 -13.6,10.21 -24.45,18.31 -32.6,24.02 -2.5,-31.48 -4.62,-54.19 -6.19,-68.15 -2.28,-24.01 -5.96,-46.49 -10.7,-67.12 -4.93,-21.48 -12.14,-61.18 -21.4,-118.87 -4.8,-29.19 -9.62,-54.09 -14.36,-74.7l-38.98 -169.65c-11.37,2.61 -25.86,6.38 -43.74,11.54 -17.91,4.99 -32.51,8.94 -43.73,11.52 -14.46,3.32 -28.51,7.73 -42.58,13.33 -13.94,5.56 -27.88,11.12 -41.67,16.67l8.79 -78.69 6.44 -72.99c29.87,-17.2 55.09,-30.24 75.87,-39.44 20.82,-9.07 45.45,-16.94 74.21,-23.55 19.65,-4.52 56.43,-8.99 110.63,-13.61 27.38,-2.3 50.54,-5.69 69.9,-10.15 24.13,-5.53 53.39,-16.4 87.8,-32.58 23.72,-11.2 41.93,-19.38 54.67,-24.37zm770.52 340.28c-2.63,88.5 -33.83,164.2 -93.88,226.95 -61.98,64.71 -135.5,95.8 -220.69,93.27 -97.14,-2.88 -172.95,-35.08 -227.3,-96.61 -50.59,-57.52 -74.48,-130.55 -71.87,-219.05 1.66,-55.54 18.08,-109.22 49.42,-160.86 28.92,-47.54 62.77,-81.68 101.28,-102.58l-11.36 -30c27.12,-11.3 55.05,-20.27 83.9,-26.77 34.36,-7.46 68.31,-10.78 102.12,-9.77 100.6,2.97 176.07,36.91 226.44,101.9 44.11,56.92 64.66,131.41 61.94,223.52zm-179.27 -6.9c1.15,-38.99 0.15,-68.56 -2.7,-88.67 -4.2,-28.35 -13.26,-53.54 -27.3,-75.56 -9.36,-14.53 -25.04,-24.8 -47.33,-30.92 -15.85,-4.36 -35.37,-6.82 -58.54,-7.5 -2.3,-0.08 -8.07,-0.1 -17.42,0.05 -9.38,0.17 -14.99,-0.01 -16.85,-0.5 -29,25.8 -50.68,57.71 -65.07,95.87 -11.73,31.35 -18.21,65.73 -19.33,103.14 -1.61,54.4 7.1,100.6 26.14,138.62 22.71,45.46 56.16,68.78 100.19,70.09 43.46,1.28 75.89,-18.94 97.73,-60.77 18.48,-35.32 28.68,-83.26 30.48,-143.85zm962.59 190.39c-12.57,44.62 -29.35,81.33 -50.23,109.85 -20.91,28.51 -50.85,54.62 -89.93,78.62l42.84 99.12 -70.32 24.47 -61.6 18.99 -19.05 -54.43 -12.12 -40.36c-27.69,4.3 -53.41,5.89 -77.07,4.91 -23.62,-1.13 -48.47,-5.28 -74.52,-12.62 -82.59,-23.27 -144.48,-71.22 -185.46,-143.94 -40.99,-72.73 -50.22,-149.37 -27.52,-229.88 26.54,-94.24 81.53,-163.56 164.68,-207.58 80.82,-43.19 167.33,-51.88 259.35,-25.96 82.04,23.12 142,72.01 180.06,146.61 37.08,72.82 44,150.17 20.89,232.2zm-168.63 -38.54c14.49,-51.41 17.88,-96.37 10.28,-134.71 -10.5,-52.47 -41.34,-85.84 -92.33,-100.2 -44.9,-12.65 -86.76,-1.56 -125.63,33.42 -34.93,31.57 -59.75,73.5 -74.43,125.6 -14.91,52.94 -17.56,99.47 -8.06,139.54 11.7,48.77 40.27,79.55 85.72,92.36 11.93,3.35 21.81,5.38 29.73,5.97 7.77,0.54 18.09,0.01 30.54,-1.71l-8.03 -29.35c-1.75,-4.97 -3.84,-9.75 -6.11,-14.42 -4.08,-8.33 -6.55,-13.37 -7.35,-14.79 15.4,-2.09 27.22,-3.69 35.33,-4.86 8.05,-1.01 19.55,-3.02 34.39,-5.85 14.87,-2.85 25.88,-5.28 33.32,-7.22 2.51,-0.49 13.4,-3.56 32.57,-8.94 7.64,-12.78 13.13,-23.82 16.81,-33.09 3.61,-9.16 8.02,-23.18 13.25,-41.75zm873.99 196.26c-4.1,9.28 -11.11,22.37 -21.06,39.38 -20.81,35.55 -43.8,69.12 -69.13,101.01 -34.35,43.28 -68.99,78.22 -103.91,104.83 -44.06,33.93 -87.91,54.97 -131.68,63.05 -49.23,8.88 -74.77,13.44 -76.71,13.64 -25.13,3.3 -48.05,2.57 -68.8,-1.9 -25.87,-5.65 -54.63,-17.81 -86.32,-36.36 -50.81,-29.75 -80.95,-65.74 -90.31,-107.91 -7.65,-34.51 -1.45,-75.6 18.21,-123.15 10.77,-26.07 32.71,-67.26 65.8,-123.8 7.43,-12.67 34.09,-49.95 80.19,-111.88 22.94,-30.94 41.1,-57.69 54.19,-80.04l31.71 -54.18c6.3,2.37 17.16,6.04 32.57,11.05 22.3,7.23 40.25,13.06 53.89,17.39l86.72 24.57c-14.84,25.33 -27.15,45.5 -36.78,60.54 -34.08,52.79 -55.27,86.42 -63.64,100.71 -18.62,31.82 -38.71,64.43 -60.2,97.72 -21.69,33.36 -43.98,68.02 -67.26,103.77 -16.79,28.7 -25.01,50.42 -24.58,65.36 0.5,14.8 11.22,28.42 32.22,40.71 28.08,16.44 57.99,14.94 90.06,-4.5 26.08,-15.76 54.27,-43.97 84.45,-84.69 21.18,-28.48 44.9,-65.31 71.37,-110.53 10.76,-18.39 19.86,-35.92 27.48,-52.65 19.52,-43.3 32.09,-69.63 37.62,-79.07l27.54 -50.45 89.72 16c14.97,2.92 30.07,5.92 45.69,8.88 15.53,3.1 30.36,6.27 44.59,9.6 -25.68,43.86 -50.17,91.41 -73.64,142.9zm623.6 346.07c-14.09,2.69 -26.55,5.27 -37.4,7.72 -10.73,2.55 -22.43,5.79 -35.1,9.71 -16.88,4.85 -31.95,9.57 -45.28,14.05 -13.25,4.36 -27.53,9.94 -42.96,16.62 -19.74,-12.8 -35.24,-23.26 -46.69,-31.59 -11.45,-8.32 -25.82,-19.89 -42.73,-34.43 -3.28,-2.82 -5.79,-4.98 -7.54,-6.47 -2.62,-2.26 -4.69,-4.04 -6.11,-5.26 -2.41,-2.06 -4.04,-3.47 -4.92,-4.22 -5.24,-4.5 -10.61,-9.52 -16.02,-14.72 -5.4,-5.21 -11.27,-11.4 -17.32,-18.48l-92.66 85.52c12.01,10.32 23.62,19.34 34.92,26.96 15.86,10.02 28.33,18.28 37.69,24.61l49.65 32.79c-10.39,4.36 -24.02,10.3 -40.92,17.8 -16.79,7.4 -31.89,14.36 -45.08,20.86l-57.23 27.51 -67.81 -58.27 -22.05 23.01c-4.59,5.35 -8.86,9.66 -12.8,13.13 -13.38,11.83 -20.85,18.53 -22.43,20.38 -3.57,4.15 -7.14,8.29 -10.7,12.45 -3.67,4.26 -7.23,8.4 -10.79,12.55 17.99,12.42 36.21,26.57 54.77,42.52 7.65,6.57 17.02,15.75 28.23,27.67 11.22,11.9 20.7,21.2 28.34,27.76 11.14,9.58 32.1,24.74 62.78,45.59 15.49,10.46 27.83,19.74 36.88,27.52 -9.21,2.34 -15.71,3.96 -19.44,4.75 -7.29,2.08 -13.75,3.18 -19.11,3.69 -17.2,2.12 -29.83,3.78 -38.02,4.92 -8.19,1.13 -16.5,3.08 -24.79,5.65 -11.31,3 -22.28,6.49 -32.82,10.15 -10.65,3.76 -20.93,8.21 -31.05,13.38 -12.02,-10.33 -34.84,-27.49 -68.5,-51.28 -16.84,-12 -30.93,-22.78 -42.39,-32.62 -15.95,-13.7 -29.22,-25.66 -39.9,-36.19 -10.6,-10.43 -35.36,-35.5 -74.11,-75.45l-39.45 -42.24 -29.61 -32.48c26.47,-12.93 51.38,-23.8 74.61,-32.49 3.78,-1.31 14.16,-4.55 31.33,-9.73 9.16,-2.94 17.44,-5.7 24.97,-8.53 4.69,-5.66 8.33,-10.11 11.15,-13.39 2.81,-3.29 4.97,-5.59 6.68,-7.35 4.03,-4.7 7.89,-8.97 11.58,-13.03 3.57,-3.94 8.91,-8.84 15.72,-14.77 6.91,-5.83 13.93,-11.57 21.27,-17.02 5.36,-6.23 8.93,-11.5 11.07,-15.74l-42.4 -44.99c8.45,-2.78 17.72,-5.83 27.69,-9.04 9.86,-3.3 18.95,-5.91 27.07,-7.87 8.02,-2.03 17.26,-3.96 27.54,-5.75 10.26,-2.01 20.77,-3.41 31.41,-4.53l43.09 -45.72c5.53,-6.46 13.64,-14.11 24.2,-22.87 10.57,-8.76 18.78,-16.33 24.31,-22.77l17.9 -25.25 -73.97 -47.8 70.62 -17.89 62.86 -15.28c27.97,17.38 56.13,34.74 84.33,52.52 14.09,12.11 28.14,25.13 42.07,39.19 34.81,35.03 56.96,56.53 66.35,64.6 28.5,24.49 53.97,43.9 76.49,58.13 22.3,14.23 53.21,31.5 92.53,51.8z"/>
  <g id="_1891939457888">
   <path class="fil2" d="M6935.25 9463.08c-53.31,13.95 -103.36,6.1 -150.1,-23.46 -45.7,-29.02 -76.62,-70.95 -92.81,-125.95 -6.6,-22.43 -11.45,-40.8 -14.47,-55.16 -3.01,-14.37 -4.97,-29.78 -5.9,-46.14 21.5,4.2 36.62,6.71 45.4,7.47 8.88,0.8 18.24,1 28.06,0.65 2.79,-0.12 15.62,-2.34 38.5,-6.65 22.86,-4.38 47.77,-9.46 74.88,-15.34 27.03,-5.85 52.03,-11.79 74.83,-17.76l-30.3 -58.7c8.79,5.7 16.49,10.47 23.08,14.21 6.54,3.85 14.56,8.3 24.12,13.34 13.76,7.52 27.22,14.27 40.59,20.45 10.14,19.05 17.69,34.59 22.53,46.65 4.86,12.05 9.69,26.25 14.49,42.59 9.24,31.39 13.51,59.06 12.72,83.02 -0.97,29.34 -8.98,53.68 -24.2,73.05 -17.38,22.13 -44.52,38.07 -81.42,47.73zm-35.51 -89.08c25.2,-6.6 43.72,-18.85 55.67,-36.68 13.12,-19.64 15.6,-43.29 7.42,-71.07l-203.92 41.42c8.84,30.05 25.57,50.95 50.12,62.72 24.57,11.85 54.8,13.01 90.71,3.61zm299.93 296.74c-7.43,-2.11 -14.03,-3.91 -19.84,-5.34 -5.79,-1.4 -12.19,-2.7 -19.25,-3.92 -9.3,-1.81 -17.69,-3.25 -25.21,-4.37 -7.44,-1.16 -15.67,-2.02 -24.73,-2.66 -6.24,-10.44 -11.05,-18.83 -14.45,-25.3 -3.39,-6.45 -7.36,-15.08 -11.82,-25.64 -0.86,-2.06 -1.52,-3.62 -1.99,-4.71 -0.68,-1.63 -1.23,-2.93 -1.61,-3.82 -0.64,-1.51 -1.06,-2.53 -1.29,-3.07 -1.39,-3.27 -2.7,-6.81 -3.99,-10.43 -1.27,-3.63 -2.54,-7.81 -3.66,-12.45l-65.81 16.71c3.17,7.5 6.45,14.32 9.96,20.44 5.08,8.27 8.98,14.95 11.88,20.02l15.54 26.54c-6.06,-0.48 -14.08,-1.02 -24.05,-1.63 -9.9,-0.64 -18.86,-1.06 -26.81,-1.25l-34.31 -1.1 -17.87 -42.34 -16.32 5.17c-3.55,1.34 -6.67,2.26 -9.42,2.91 -9.38,2.17 -14.63,3.43 -15.86,3.9 -2.74,1.02 -5.49,2.04 -8.25,3.08 -2.8,1.06 -5.57,2.1 -8.31,3.12 5.51,9.87 10.68,20.55 15.58,32.15 2.01,4.78 4.19,11.14 6.56,19.17 2.4,8.03 4.6,14.46 6.62,19.24 2.93,6.95 9.17,18.75 18.63,35.41 4.8,8.4 8.39,15.5 10.77,21.15 -4.99,-1.11 -8.51,-1.93 -10.5,-2.44 -4.02,-0.79 -7.38,-1.83 -10.08,-2.86 -8.77,-3.11 -15.24,-5.34 -19.43,-6.78 -4.21,-1.41 -8.69,-2.5 -13.29,-3.29 -6.18,-1.33 -12.3,-2.34 -18.27,-3.19 -6.05,-0.81 -12.07,-1.23 -18.21,-1.29 -3.16,-7.5 -9.81,-20.65 -19.96,-39.35 -5.06,-9.4 -9.09,-17.6 -12.11,-24.75 -4.21,-9.96 -7.56,-18.5 -10.04,-25.77 -2.46,-7.22 -8.04,-24.4 -16.58,-51.6l-8.29 -28.4 -6.05 -21.67c15.93,0.43 30.58,1.41 43.9,2.99 2.13,0.3 7.9,1.28 17.43,3 5.12,0.84 9.78,1.54 14.09,2.06 3.67,-1.46 6.53,-2.61 8.7,-3.42 2.17,-0.82 3.79,-1.34 5.04,-1.73 3.11,-1.17 6.04,-2.19 8.81,-3.15 2.71,-0.94 6.49,-1.88 11.23,-2.94 4.78,-1.01 9.59,-1.95 14.46,-2.67 4.13,-1.55 7.17,-3.08 9.25,-4.49l-9.03 -30.34c4.75,0.76 9.96,1.56 15.53,2.47 5.54,0.83 10.56,1.81 14.94,2.85 4.34,0.98 9.25,2.29 14.63,3.91 5.42,1.51 10.8,3.37 16.17,5.38l32.11 -10.46c4.26,-1.6 10.06,-3.14 17.32,-4.6 7.26,-1.46 13.09,-2.94 17.36,-4.53l14.89 -7.18 -23.43 -39.06 38.31 8.61 33.92 7.97c9.03,14.46 18.18,28.96 27.23,43.65 3.71,8.8 7.16,17.99 10.3,27.63 7.9,24.05 13.1,39.01 15.58,44.86 7.5,17.8 14.84,32.58 22.05,44.33 7.12,11.7 17.59,26.81 31.33,45.27zm-102.16 321.76c-14.32,1.07 -28.48,2.12 -42.62,3.1 -7.93,1.17 -14.44,2.32 -19.51,3.45 -5.08,1.11 -11.62,2.8 -19.73,5.01l-15.82 -20.08c-0.44,-0.7 -10.05,-12.31 -28.99,-34.74 -10.56,-12.7 -20.14,-25.85 -28.65,-39.45 -7.36,-11.75 -16.96,-27.36 -28.86,-46.81 -11.94,-19.52 -20.1,-32.86 -24.58,-40.01l44.58 -11.34 32.54 -7.79 8.28 9.77 67.29 -32.24c22.52,-12.54 41.38,-22.67 56.72,-30.37 15.3,-7.75 33.33,-16.08 53.9,-25.06 8.87,-3.73 18.16,-7.54 28.09,-11.28 9.91,-3.81 17.16,-6.66 21.84,-8.58l20.56 21.88c7.88,9.85 15.86,19.72 24.05,29.64 8.41,8.79 17.22,17.1 26.48,24.81 -14.09,3.92 -28.02,7.91 -41.78,11.92 -21.49,7.11 -36.53,12.4 -45.13,15.82 -13.19,5.22 -27.48,12.13 -42.75,20.65 -5.97,3.3 -12.57,7.06 -19.83,11.19 -7.15,4.16 -15.07,8.72 -23.63,13.67 -9.71,5.4 -16.64,9.08 -20.67,10.99 -4.05,1.91 -11.07,5.13 -21.14,9.55 -1.92,0.81 -7.39,3.34 -16.4,7.59 -9,4.24 -15.06,7.11 -18.27,8.63 5.43,8.66 9.45,14.94 11.99,18.72 12.7,18.85 19.33,28.69 19.83,29.52 5.79,9.23 12.36,18.17 19.71,26.87 1.72,2.03 9.28,10.34 22.5,24.97zm317.48 -33.7c-10.88,4.72 -20.92,9.13 -30.11,13.43 -9.16,4.17 -18.97,9.79 -29.36,16.79 -3.61,2.43 -10.61,6.43 -21.11,12.03 -10.4,5.57 -18.74,10.46 -24.88,14.59l-33.5 21.56 -145.18 97.72c-8.59,-7.3 -16.4,-13.57 -23.41,-18.68 -6.96,-5.14 -15.92,-11.29 -26.79,-18.58 -5.33,-3.62 -10.59,-7.03 -15.79,-10.11 -3.69,-2.11 -9.2,-5.34 -16.53,-9.6l47.38 -27.58c10.26,-6.9 29.68,-17.52 58.1,-31.89 14.38,-7.25 26.19,-14.01 35.56,-20.33l94.39 -63.52c10.39,-6.99 20.33,-13.05 29.78,-18.25 12.92,-6.44 23.19,-11.81 31.04,-16.11 3.74,4.97 7.05,8.96 9.81,11.97 2.83,2.97 5.3,5.63 7.63,7.94 7.8,7.91 18.26,16.02 31.45,24.36 9.76,6.33 16.96,11.03 21.52,14.26zm206.32 256.88c-13.27,3.66 -22.76,6.29 -28.57,7.8 -10.16,2.8 -19.37,5.97 -27.71,9.52 -30.2,12.67 -57.69,23.45 -82.65,32.4 -27.25,9.81 -58.73,20.06 -94.51,30.85 -35.71,10.76 -73.93,21.02 -114.7,30.84l-32.4 -20.69 -32.26 -21.89c15.42,-21.5 30.99,-43.04 46.72,-64.53 9.63,-14.34 18.19,-27.82 25.59,-40.55 7.45,-12.77 14.84,-25.4 22.26,-37.87 9.68,-16.1 18.36,-29.66 26.08,-40.92 13.43,-19.16 23.37,-33.15 29.71,-41.85 8.5,-11.29 19.12,-24.78 31.84,-40.56 3.94,4.35 7.43,8.09 10.55,11.2 3.11,3.08 9.08,8.52 17.93,16.15 12.65,10.54 27.17,20.67 43.65,30.26 -3.25,3.4 -6.52,6.8 -9.66,10.11 -3.2,3.36 -6.33,7.03 -9.53,11.16 -5.32,6.9 -10.26,15.34 -14.96,25.41 -6.11,13.23 -10.61,22.18 -13.35,26.71 -9.81,16.49 -21.51,33.95 -35.06,52.42 -8.34,11.47 -16.42,22.33 -24.12,32.69 29.56,-12.36 58.58,-23.7 87.01,-33.9 17.89,-6.71 35.01,-12.69 51.16,-17.89 12.05,-4.02 29.37,-9.41 51.9,-16.19l32.36 21.78 42.72 27.54zm198.17 188.69c-7.68,0.98 -14.48,1.95 -20.41,2.89 -5.87,0.99 -12.27,2.33 -19.23,3.97 -9.26,1.99 -17.53,3.97 -24.86,5.88 -7.28,1.85 -15.16,4.29 -23.67,7.25 -10.28,-7.06 -18.34,-12.81 -24.27,-17.37 -5.93,-4.56 -13.35,-10.85 -22.04,-18.72 -1.7,-1.54 -2.98,-2.7 -3.88,-3.51 -1.35,-1.22 -2.42,-2.18 -3.14,-2.84 -1.24,-1.13 -2.09,-1.89 -2.54,-2.29 -2.68,-2.44 -5.44,-5.14 -8.2,-7.93 -2.77,-2.81 -5.75,-6.12 -8.81,-9.9l-52.54 40.93c6.18,5.58 12.17,10.51 18.05,14.71 8.26,5.55 14.75,10.08 19.6,13.56l25.83 18.09c-5.73,1.92 -13.27,4.56 -22.61,7.91 -9.28,3.29 -17.63,6.41 -24.95,9.36l-31.7 12.42 -34.89 -31.57 -12.56 11.1c-2.65,2.59 -5.09,4.67 -7.3,6.33 -7.58,5.64 -11.8,8.83 -12.73,9.74 -2.04,2 -4.08,4.01 -6.13,6.03 -2.1,2.06 -4.15,4.08 -6.19,6.09 9.33,6.83 18.75,14.53 28.3,23.16 3.93,3.56 8.72,8.5 14.41,14.88 5.71,6.38 10.54,11.36 14.47,14.93 5.73,5.18 16.6,13.46 32.53,24.93 8.05,5.77 14.44,10.82 19.12,15.04 -5.06,0.94 -8.62,1.57 -10.65,1.88 -4.01,0.85 -7.51,1.23 -10.43,1.34 -9.34,0.6 -16.21,1.1 -20.66,1.44 -4.46,0.36 -9,1.11 -13.55,2.19 -6.2,1.2 -12.22,2.68 -18.02,4.24 -5.85,1.63 -11.52,3.6 -17.14,5.95 -6.18,-5.6 -18,-14.96 -35.47,-28.01 -8.72,-6.58 -16.02,-12.46 -21.91,-17.78 -8.2,-7.43 -15.01,-13.88 -20.46,-19.54 -5.41,-5.61 -18.04,-19.05 -37.76,-40.47l-20.04 -22.6 -15.04 -17.35c14.68,-5.85 28.46,-10.67 41.25,-14.45 2.07,-0.56 7.77,-1.92 17.19,-4.08 5.04,-1.24 9.58,-2.42 13.74,-3.64 2.7,-2.75 4.79,-4.92 6.41,-6.51 1.61,-1.59 2.85,-2.7 3.82,-3.55 2.33,-2.27 4.54,-4.35 6.63,-6.29 2.05,-1.93 5.08,-4.26 8.94,-7.08 3.89,-2.8 7.86,-5.52 11.98,-8.09 3.07,-3.02 5.16,-5.6 6.44,-7.7l-21.56 -24.07c4.66,-1.17 9.74,-2.47 15.22,-3.82 5.41,-1.41 10.4,-2.5 14.84,-3.26 4.38,-0.8 9.44,-1.53 15.04,-2.14 5.59,-0.75 11.31,-1.18 17.08,-1.44l24.62 -22.06c3.18,-3.14 7.79,-6.81 13.74,-10.96 5.96,-4.17 10.62,-7.8 13.79,-10.92l10.41 -12.34 -38.51 -26.4 38.65 -7.14 34.39 -6c14.57,9.61 29.27,19.23 43.96,29.08 7.24,6.54 14.44,13.56 21.52,21.11 17.76,18.8 29.08,30.37 33.91,34.74 14.67,13.25 27.84,23.83 39.55,31.71 11.62,7.87 27.8,17.52 48.42,28.94zm35.02 442.92c-8.15,-5.52 -15.74,-11.3 -22.71,-17.37 -8.63,-8.19 -15.69,-14.68 -21.14,-19.49 -8.22,-7.72 -14.3,-13.47 -17.95,-17.26 -3.7,-3.8 -8.96,-9.64 -15.76,-17.61l7.55 -91.71 5.64 -65.9c-10.06,8.59 -20,17.15 -29.84,25.86 -9.39,8.95 -16.84,16.74 -22.45,23.33 -5.5,6.57 -13.16,16.3 -22.82,29.18 -4.53,-0.05 -10.99,0.03 -19.51,0.47 -12.71,0.44 -23.19,-0.07 -31.4,-1.7 -10.47,-2.19 -19.4,-4.65 -26.73,-7.46 -7.39,-2.86 -15.07,-6.98 -23.08,-12.31 19.82,-16.28 39.71,-32.51 59.63,-48.79 7.67,-7.93 14.5,-15.4 20.43,-22.43 5.93,-7 12.98,-16.05 21.2,-27.02l71.54 -96.98c-3.66,-1.99 -7.29,-3.87 -10.82,-5.78 -3.64,-1.88 -7.4,-3.49 -11.39,-4.63l-30.04 -9.14c15.46,-5.22 29.72,-10.92 42.92,-17.22 8.83,-4.27 15.94,-7.9 21.24,-10.91 6.95,-3.81 13.78,-7.97 20.51,-12.49l21.85 12.41c10.11,6.74 29.93,16.8 59.39,30.12 14.79,6.71 27.1,13.3 37.01,19.91 31.33,20.88 50.76,43.52 58.19,67.94 7.47,24.49 2.63,48.12 -14.56,71.08 -13.53,18.04 -30.06,30.57 -49.41,37.45 -19.41,6.91 -40.02,7.47 -61.79,1.7 -2.93,15.46 -5.19,29.42 -6.78,41.84 -1.23,9.15 -2.67,23.28 -4.47,42.57 -1.74,19.23 -2.89,36.18 -3.58,50.71 -0.66,14.47 -0.92,31.73 -0.87,51.63zm50.19 -263.96c8.37,-11.15 11.43,-22.22 9.15,-33.18 -2.26,-10.95 -8.66,-19.97 -19.27,-27.05 -5.28,-3.5 -9.36,-5.95 -12.22,-7.22 -2.86,-1.27 -6.86,-2.42 -12.01,-3.42l-26.68 35.61c-6.42,8.56 -12.1,15.74 -16.85,21.46 -16.76,19.93 -26.03,31.18 -27.97,33.76 15.94,7.72 33.89,10.35 53.94,7.89 22.86,-2.92 40.2,-12.21 51.91,-27.85zm379.81 93.06c-17.61,12.74 -30.08,21.85 -37.57,27.24 -13.45,9.51 -26.12,17.75 -38.08,24.59 -16.69,9.34 -32.3,18.52 -46.73,27.58 -14.41,9.03 -26.67,16.92 -36.66,23.73 -25,16.84 -38.51,25.99 -40.58,27.3 -9.84,12.85 -19.58,25.67 -29.18,38.41 -4.63,5.44 -9.13,10.7 -13.56,15.81 -4.5,5.08 -10.45,11.5 -17.91,19.21l-58.74 -5.55 -54.06 -6.13c6.04,-6.1 10.54,-10.76 13.71,-13.85 3.14,-3.2 7.34,-6.76 12.46,-10.82 8.98,-7.39 16.28,-14.08 21.93,-20.15 9.4,-10.12 18.61,-22.37 27.6,-36.89 2.94,-4.75 9.38,-13.28 19.41,-25.58 5.07,-6.14 9.04,-11.68 12.1,-16.64 1.26,-30.14 2.46,-60.31 3.62,-90.44 1.45,-15.16 3.17,-29.59 5.08,-43.16 1.96,-13.53 4.47,-27.62 7.5,-42.43 12.71,4.95 25.69,8.7 38.97,11.16 8.43,1.66 15.67,2.76 21.75,3.29 6.1,0.46 13.68,0.74 22.68,0.59 -1.97,11.07 -3.68,22.28 -5.12,33.62 -1.03,7.94 -2.29,19.14 -3.77,33.62 -1.87,19.18 -3.07,38.75 -3.6,58.84 6.1,-2.15 15.74,-7.82 28.68,-17.11 6.69,-4.81 13.41,-9.69 20.29,-14.57l43.13 -30.83c7.59,4.2 14.27,7.53 20.17,9.92 5.86,2.46 10.48,4.32 13.78,5.69 9.83,3.64 17.88,6.21 24.11,7.75 6.15,1.6 15.69,3.52 28.59,5.8zm378.52 309.94c-18.39,49.2 -53.87,83.39 -106.34,102.59 -51.4,18.72 -105.57,18.6 -162.66,-0.38 -23.27,-7.72 -42.04,-14.5 -56.25,-20.39 -14.22,-5.89 -28.74,-13.21 -43.5,-21.85 15.98,-14.22 26.81,-24.47 32.5,-30.83 5.77,-6.4 11.31,-13.52 16.62,-21.32 1.5,-2.23 6.91,-13.41 16.27,-33.55 9.28,-20.2 19.14,-42.36 29.54,-66.67 10.39,-24.25 19.54,-46.98 27.4,-68.01l-68.39 -10.19c9.99,-3.54 18.53,-6.76 25.57,-9.71 7.1,-2.86 15.55,-6.51 25.41,-11.01 14.43,-6.34 28,-12.88 41.02,-19.68 22.37,3.08 40.2,6.14 53.46,9.31 13.27,3.14 28.38,7.55 45.34,13.18 32.57,10.83 59.08,23.38 79.47,37.7 24.95,17.56 41.53,37.69 49.66,60.54 9.29,26.11 7.61,56.21 -5.12,90.27zm-97.79 -23.56c8.68,-23.25 8.64,-44.59 -0.01,-64.04 -9.57,-21.39 -28.71,-36.85 -57.55,-46.44l-80.76 181.38c31.2,10.35 58.96,9.39 83.24,-2.85 24.37,-12.19 42.68,-34.91 55.08,-68.05zm428.84 -63.74c-6.06,4.56 -11.39,8.66 -15.97,12.33 -4.5,3.68 -9.27,7.93 -14.36,12.69 -6.87,6.18 -12.9,11.87 -18.16,17.05 -5.25,5.11 -10.69,11.01 -16.4,17.66 -12.68,-1.11 -22.71,-2.16 -30.28,-3.21 -7.57,-1.05 -17.35,-2.88 -29.09,-5.44 -2.29,-0.5 -4.03,-0.87 -5.25,-1.15 -1.81,-0.38 -3.25,-0.71 -4.23,-0.92 -1.68,-0.36 -2.82,-0.61 -3.43,-0.74 -3.63,-0.79 -7.46,-1.78 -11.36,-2.85 -3.89,-1.08 -8.24,-2.48 -12.93,-4.26l-22.91 60.53c8.34,1.82 16.16,3.16 23.48,3.92 10.11,0.78 18.16,1.54 24.22,2.19l32.01 3.07c-3.89,4.42 -8.92,10.33 -15.13,17.71 -6.18,7.3 -11.66,14.02 -16.36,20.08l-20.49 25.96 -47.09 -10.26 -4.78 15.59c-0.86,3.51 -1.83,6.47 -2.83,8.96 -3.46,8.51 -5.35,13.29 -5.64,14.52 -0.66,2.7 -1.34,5.41 -2,8.13 -0.69,2.79 -1.35,5.52 -2.01,8.23 11.72,1.35 23.99,3.43 36.89,6.24 5.3,1.16 12.09,3.08 20.45,5.81 8.37,2.72 15.23,4.68 20.54,5.83 7.74,1.7 21.57,3.57 41.48,5.73 10.05,1.07 18.29,2.32 24.58,3.69 -3.83,3.25 -6.54,5.51 -8.11,6.76 -2.98,2.67 -5.79,4.68 -8.24,6.19 -7.7,5.01 -13.33,8.76 -16.97,11.2 -3.64,2.45 -7.13,5.29 -10.45,8.41 -4.66,4.04 -9.03,8.22 -13.17,12.36 -4.15,4.22 -7.96,8.65 -11.5,13.37 -8.34,-1.81 -23.59,-4.16 -45.67,-6.93 -11.08,-1.45 -20.52,-2.98 -28.48,-4.72 -11.08,-2.41 -20.43,-4.67 -28.18,-6.89 -7.69,-2.21 -25.85,-7.66 -54.42,-16.53l-29.49 -9.74 -22.33 -7.65c9.44,-12.12 18.65,-22.9 27.59,-32.32 1.48,-1.49 5.64,-5.4 12.56,-11.81 3.65,-3.49 6.91,-6.7 9.82,-9.76 0.82,-3.67 1.44,-6.54 1.96,-8.67 0.53,-2.16 0.99,-3.71 1.36,-4.9 0.76,-3.09 1.54,-5.92 2.28,-8.62 0.71,-2.64 2.06,-6.11 3.82,-10.39 1.84,-4.27 3.78,-8.53 5.91,-12.72 1,-4.08 1.4,-7.31 1.36,-9.72l-31.59 -10.28c3.36,-3.26 7.02,-6.83 11,-10.64 3.87,-3.82 7.58,-7.15 10.98,-9.94 3.32,-2.83 7.27,-5.88 11.74,-9.12 4.41,-3.34 9.09,-6.46 13.9,-9.47l9.17 -30.85c1.03,-4.22 2.99,-9.6 5.85,-16.04 2.86,-6.46 4.9,-11.81 5.93,-16.03l2.23 -15.64 -47.4 -4.08 29.32 -24.79 26.27 -21.75c17.74,1.22 35.59,2.4 53.55,3.76 9.78,2.13 19.78,4.69 29.97,7.75 25.45,7.57 41.47,12.04 47.98,13.46 19.79,4.32 36.85,7.05 51.2,8.15 14.25,1.15 33.38,1.64 57.3,1.5zm380.66 268.02c-4.45,11.83 -8.65,24.93 -12.71,39.13 -1.84,6.39 -3.36,12.15 -4.47,17.25 -1.12,5.04 -2.31,10.5 -3.51,16.35 -9.39,3.3 -22,5.5 -38,6.7 -15.94,1.21 -32.83,1.49 -50.57,0.96 -43.33,-1.31 -80.68,-17.64 -112.09,-48.97 -32.01,-31.95 -47.26,-68.91 -45.83,-110.93 1.63,-47.52 20.12,-88.01 55.61,-121.44 36.36,-34.22 79.59,-50.6 129.59,-49.09 18.36,0.55 32.05,1.27 40.89,2.13 8.84,0.84 19.21,3.08 31.08,6.6 -0.32,9.37 -0.49,16.48 -0.41,21.19 0,4.78 0.4,11.17 1.2,19.27 1.38,14.65 3.92,29.49 7.6,44.58 -13.61,-7.32 -24.64,-12.5 -33.1,-15.47 -12.01,-4.33 -24.3,-6.68 -36.84,-7.06 -24.02,-0.72 -45.11,8.04 -63.25,26.36 -18.15,18.32 -27.6,39.76 -28.45,64.4 -0.93,27.43 5.26,49.49 18.47,66.27 15.31,19.4 38.62,29.57 69.97,30.52 13.85,0.41 24.44,0.23 31.78,-0.57 7.35,-0.8 21.7,-3.53 43.04,-8.18zm358.32 -108.09c3.66,45.01 -8.8,85.06 -37.49,120.09 -29.63,36.13 -67.38,55.83 -113.3,59.14 -52.38,3.77 -94.97,-8.47 -127.71,-36.73 -30.47,-26.43 -47.49,-62.15 -51.13,-107.14 -2.29,-28.26 3.48,-56.34 17.38,-84.2 12.84,-25.64 29.09,-44.77 48.59,-57.44l-7.82 -14.6c13.94,-7.19 28.43,-13.23 43.57,-18.07 18.04,-5.64 36.1,-9.15 54.34,-10.46 54.24,-3.9 96.75,9.24 127.53,39.48 26.96,26.45 42.26,63.11 46.04,109.93zm-96.74 6.16c-1.6,-19.82 -3.84,-34.76 -6.52,-44.8 -3.88,-14.14 -10.17,-26.43 -18.98,-36.82 -5.87,-6.87 -14.88,-11.22 -27.22,-13.13 -8.76,-1.36 -19.39,-1.55 -31.88,-0.65 -1.25,0.1 -4.35,0.38 -9.37,0.96 -5.02,0.59 -8.07,0.81 -9.08,0.66 -14.11,14.63 -23.95,31.97 -29.5,52.09 -4.52,16.51 -6.04,34.29 -4.5,53.32 2.24,27.65 9.55,50.6 21.95,68.84 14.81,21.81 34.12,31.85 57.87,30.14 23.43,-1.69 39.71,-13.69 49.07,-36.07 7.9,-18.88 10.65,-43.74 8.16,-74.54zm525.57 35.81c-13.34,7.78 -26.58,15.59 -39.71,23.3 -12.19,8.18 -24.33,17.56 -36.57,28.17 -14.63,-33.25 -29.34,-66.48 -44.06,-99.78 -6.61,-17.98 -11.65,-32.26 -15.09,-42.87 -3.51,-10.6 -6.98,-23.03 -10.5,-37.25 -2.16,4.54 -4.95,13.29 -8.54,26.22 -3.58,12.93 -7.14,25.99 -10.76,39.14 -5.13,18.32 -10.04,34.32 -14.61,47.82 -5.41,16.2 -10.91,30.14 -16.44,41.75 -5.49,11.68 -12.68,24.57 -21.65,38.69 -11.97,-24.73 -23.92,-49.45 -35.78,-74.11 -3.02,-5.07 -5.77,-9.73 -8.34,-13.99 -8.8,-13.89 -13.79,-21.83 -14.94,-23.9 -1.17,-2.1 -3.96,-7.21 -8.33,-15.51 -4.43,-8.21 -8.02,-14.97 -10.84,-20.22 -1.31,7.6 -2.46,19.08 -3.39,34.43 -0.96,18.67 -1.82,31.6 -2.67,38.87 -2.42,20.58 -4.69,41.12 -6.95,61.66 -0.29,6.54 -0.45,12.99 -0.37,19.44 -0.09,9.98 0.36,20.51 1.44,31.63 -12.43,-3.36 -25.27,-5.5 -38.37,-6.47 -4.8,-0.36 -9.95,-0.51 -15.43,-0.36 -5.43,0.06 -10.33,0.24 -14.5,0.55 -0.3,-17.71 -0.78,-36.08 -1.24,-55.02 -0.52,-18.89 -0.85,-34.1 -1.14,-45.58 -0.22,-19.99 -0.21,-37.63 0.08,-52.92 0.69,-19.2 1.83,-37.46 3.48,-55.01 1.74,-17.5 3.5,-34.61 5.32,-51.44 2,-20.69 2.97,-38.33 3.05,-52.88 4.7,-1.04 8.35,-2.15 10.92,-3.32 2.67,-1.19 5.17,-2.42 7.66,-3.57 12.98,-5.04 25.84,-11.56 38.76,-19.46 8.19,9.58 15.67,18.79 22.67,27.71 6.93,8.96 14.14,18.97 21.6,30.06 8.87,13.26 16.6,25.43 23.27,36.55 6.59,11.13 13.39,23.73 20.32,37.8 5.93,-20.22 10.28,-35.28 12.93,-45.2 3.35,-12.65 6.97,-27.98 10.95,-45.88 2.81,-12.16 4.61,-20.69 5.57,-25.57 1.4,-6.57 3,-15.29 4.82,-26.01 4.77,-1.66 8.9,-3.1 12.38,-4.23 3.45,-1.21 6.17,-2.19 8.12,-3 18.56,-7.4 36,-16.66 52.07,-27.97 1.91,7.72 3.94,16.62 6.11,26.69 2.19,10.08 3.41,15.67 3.7,16.82 1.28,5.22 4.87,14.53 10.71,28.09 5.82,13.48 12.45,28.67 20.03,45.39 11.36,24.93 18.61,41.28 21.9,49.06l52.36 121.68zm45.49 -355.13c1.64,11.17 3.22,21.52 4.93,31.05 1.57,9.49 4.44,19.96 8.53,31.36 1.42,3.96 3.46,11.45 6.11,22.53 2.63,11.01 5.18,19.96 7.61,26.69l12.19 36.48 57.18 159.31c-9.9,5.63 -18.53,10.86 -25.75,15.73 -7.24,4.78 -16.07,11.09 -26.62,18.79 -5.21,3.76 -10.2,7.52 -14.82,11.32 -3.22,2.72 -8.09,6.75 -14.53,12.15l-14.29 -50.76c-4.03,-11.26 -9.21,-31.85 -15.55,-61.65 -3.2,-15.09 -6.66,-27.71 -10.33,-37.99l-37.19 -103.58c-4.09,-11.39 -7.35,-22.12 -9.9,-32.16 -2.8,-13.51 -5.29,-24.35 -7.37,-32.67 6.13,-1.95 11.15,-3.77 14.98,-5.39 3.84,-1.69 7.26,-3.16 10.28,-4.59 10.28,-4.76 21.54,-11.83 33.83,-21.33 9.25,-6.98 16.12,-12.11 20.71,-15.29zm396.62 8.79c24.97,46.55 26.63,94.36 5.05,143.38 -21.21,47.94 -58.76,84.75 -112.79,110.51 -22.01,10.5 -40.18,18.58 -54.52,24.2 -14.35,5.6 -29.99,10.43 -46.81,14.5 0.14,-20.7 -0.22,-35.17 -1.16,-43.44 -0.9,-8.36 -2.52,-17.05 -4.83,-26.07 -0.67,-2.56 -5.49,-13.98 -14.45,-34.29 -9.05,-20.28 -19.22,-42.32 -30.64,-66.23 -11.4,-23.83 -22.48,-45.77 -33.15,-65.68l-55.11 39.52c4.21,-9.24 7.65,-17.29 10.26,-24.13 2.71,-6.8 5.77,-15.09 9.13,-24.91 5.12,-14.2 9.5,-27.97 13.3,-41.55 17.83,-13.1 32.51,-23.14 44.09,-29.98 11.6,-6.85 25.41,-14.1 41.46,-21.75 30.82,-14.7 58.78,-24.06 83.83,-28.04 30.73,-4.86 57.6,-2.22 80.73,8.05 26.43,11.73 48.33,33.68 65.61,65.91zm-85.69 50.3c-11.79,-22 -28.16,-36.73 -49.05,-44.28 -23,-8.27 -48.09,-5.92 -75.38,7.08l83.08 180.42c29.52,-14.06 47.98,-33.63 55.41,-58.64 7.5,-25.03 2.77,-53.21 -14.06,-84.58z"/>
   <path class="fil2" d="M10967.34 10721.58c-6.95,5.82 -12.42,10.4 -16.4,13.66 -3.93,3.33 -8.87,7.93 -14.56,13.7 -5.77,5.82 -10.97,11.64 -15.62,17.46 -4.63,5.83 -9.78,13.1 -15.54,21.93l-22.75 -22.08c-2.57,-2.47 -4.99,-4.66 -7.28,-6.68 -2.21,-2.06 -6.75,-5.77 -13.69,-11.27 -5.85,2.82 -13.58,6.41 -23.24,10.82 -9.66,4.4 -17.34,8.32 -22.99,11.7l-49.32 29.61c0.49,11.63 0.85,23.23 1.26,34.91l2.31 33.23c-7.06,-1.33 -13.54,-2.15 -19.25,-2.45 -5.81,-0.25 -11.9,0.01 -18.47,0.82 -6.59,0.74 -12.44,1.8 -17.6,3.17 -5.16,1.35 -10.72,3.39 -16.63,5.97 -0.25,-7.76 -0.53,-13.5 -0.79,-17.17 -0.28,-3.67 -0.76,-9.04 -1.52,-16.05 -0.48,-3.71 -0.92,-7.38 -1.33,-11.12 -0.49,-3.72 -0.94,-7.53 -1.56,-11.33l-47.17 -35.19 37.11 -12.8c-3.14,-23.34 -6.31,-44.73 -9.55,-64.01 -3.22,-19.39 -7.27,-40.71 -12.1,-63.97 -3.13,-15.02 -6.61,-30.84 -10.51,-47.55 -3.84,-16.75 -7.94,-32.54 -12.19,-47.3l29.62 -24.05c10.35,-9.26 19.42,-17.82 27.21,-25.82l14.27 14.57c12.8,12.68 26.53,24.8 41.34,36.36 9.29,7.2 22.69,17.08 40.09,29.6 19.19,13.8 34.11,24.85 44.73,33.19 20.13,15.47 34.57,26.73 43.24,33.7 15.82,12.52 29.94,24.14 42.18,35.05 8.62,7.96 17.28,15.72 25.89,23.44 3.3,2.7 7.02,5.61 11.19,8.76 4.03,3.14 7.32,5.53 9.62,7.19zm-158.44 -16.35l-36.66 -29.57 -44.37 -37.58c1.71,8.82 3.39,17.48 5.02,26.15 1.23,6.21 3.23,15.03 5.86,26.32 2.99,12.9 4.83,20.83 5.53,23.64 1.88,7.57 4.01,15.51 6.44,23.88l25.91 -14.5 32.27 -18.34zm428.13 -411.3c33.11,32.59 50.48,70.96 51.92,115.21 1.46,45.65 -14.43,83.48 -47.68,113.54 -37.92,34.28 -79.06,50.33 -123.37,48.1 -41.34,-2.16 -78.56,-19.55 -111.67,-52.13 -20.8,-20.44 -35.26,-45.59 -43.3,-75.44 -7.36,-27.48 -7.69,-52 -1.16,-73.46l-15.87 -6.59c5.93,-13.9 13.05,-27.26 21.48,-40.05 10.14,-15.16 21.72,-28.69 34.92,-40.63 39.27,-35.5 80.95,-50.81 125.09,-45.88 38.65,4.29 75.17,23.44 109.64,57.33zm-70.59 62.7c-14.6,-14.35 -26.38,-24.55 -35.21,-30.69 -12.52,-8.59 -25.67,-14.32 -39.47,-17.08 -9.16,-1.8 -19.06,0.25 -29.86,6.15 -7.69,4.21 -16.03,10.42 -25.07,18.61 -0.9,0.81 -3.1,2.89 -6.59,6.35 -3.48,3.46 -5.68,5.44 -6.57,5.94 -1.04,19.75 3.05,39.04 12.31,57.91 7.63,15.45 18.43,30.09 32.43,43.87 20.37,20.02 41.47,33.36 63.34,40.02 26.12,7.99 47.8,4.17 64.98,-11.37 16.96,-15.34 21.46,-34.36 13.61,-57.24 -6.62,-19.32 -21.23,-40.18 -43.9,-62.47zm98.06 -388.54l57.06 43.52c16.46,12.22 35.05,26.23 55.83,42.04 20.79,15.82 32.29,24.56 34.55,26.24l19.74 14.66c12.48,9.27 21.78,16.39 27.83,21.24 6.04,4.88 14.48,12.08 25.35,21.73 5.25,3.91 9.19,7.03 11.7,9.46 7.04,7.47 12.81,13.35 17.19,17.62 0.82,3.88 1.58,7.71 2.33,11.55 1.1,6.05 1.41,12.44 0.9,19.08 -0.57,9.57 -1.02,16.15 -1.29,19.68 -0.84,7.41 -2.16,14.55 -4.01,21.5 -4.66,-0.47 -9.32,-1.05 -14.07,-1.77 -1.06,-0.04 -8.67,-0.65 -22.73,-1.85 -21.47,-1.1 -42.83,-2.22 -64.17,-3.49 -15.98,-1.5 -34.52,-4.35 -55.53,-8.38 -26.4,-5.04 -44.6,-8.38 -54.62,-10.03 6.54,4.85 12.03,9.21 16.36,12.9 15.45,13.07 24.49,20.62 27.11,22.58 11.18,8.31 21.66,17.11 31.47,26.37 11.91,11.93 21.59,21.47 29.11,28.82l-11.45 38.01 -11.36 38.02c-6.18,-6.38 -12.02,-12.31 -17.71,-17.84 -5.65,-5.43 -12.73,-12.27 -21.16,-20.3 -4.73,-4.55 -11.37,-10.24 -19.9,-17.11 -8.55,-6.84 -16.17,-12.77 -22.89,-17.77 -4.95,-3.69 -9.96,-7.41 -15.04,-11.17 -5.12,-3.82 -10.26,-7.64 -15.53,-11.55 -9.71,-7.22 -18.84,-14.29 -27.47,-21.16 -8.63,-6.89 -17,-14.06 -25.03,-21.52 -8.08,-7.39 -15.7,-14.65 -22.84,-21.63 -3.98,-3.89 -10.96,-10.84 -20.98,-20.9l-37.08 -7.2c5.17,-11.3 9.2,-23.82 12.12,-37.52 1.67,-7.07 2.77,-13.74 3.36,-20.02 0.56,-6.22 0.64,-13.45 0.17,-21.54l45.3 7.58 79.39 12.65 111.08 19.21 -69.63 -51.73c-7.57,-5.63 -14.85,-10.67 -21.83,-15.11 -20.72,-13.17 -32.72,-20.96 -36.03,-23.42l-24.61 -19.4c4.63,-9.09 8.01,-15.63 10.01,-19.67 3.53,-7.08 6.44,-13.52 8.72,-19.21 2.21,-5.73 4.22,-11.33 5.9,-16.9 1.1,-3.2 2.53,-8.6 4.38,-16.27zm382.21 -68.17c7.41,11.62 14.72,23.09 21.95,34.59 4.66,6.17 8.65,11.15 11.99,14.93 3.32,3.8 7.83,8.57 13.55,14.42l-12.02 22.3c-0.46,0.69 -7.2,13.98 -20.05,39.95 -7.35,14.58 -15.55,28.54 -24.66,41.77 -7.89,11.46 -18.42,26.52 -31.58,45.24 -13.2,18.77 -22.22,31.63 -27.01,38.59l-30.66 -32.57 -21.91 -23.99 5.59 -11.35 -60.61 -42.41c-21.94,-13.42 -39.97,-24.82 -54.12,-34.33 -14.19,-9.46 -30.11,-20.95 -47.82,-34.32 -7.49,-5.81 -15.25,-11.95 -23.23,-18.67 -8.04,-6.66 -13.98,-11.51 -17.88,-14.61l11.59 -27.11c5.84,-11.03 11.65,-22.17 17.42,-33.51 4.59,-11.02 8.55,-22.16 11.74,-33.41 10.01,10.15 20.01,20.12 29.95,29.94 16.34,14.98 28.06,25.31 35.15,31.04 10.82,8.81 23.77,17.79 38.64,26.88 5.82,3.56 12.33,7.44 19.49,11.74 7.13,4.18 14.98,8.82 23.51,13.85 9.45,5.79 16.02,9.98 19.65,12.54 3.62,2.57 9.81,7.05 18.48,13.59 1.63,1.26 6.47,4.74 14.52,10.45 8.03,5.7 13.47,9.55 16.33,11.57 5.81,-8.44 9.98,-14.63 12.43,-18.47 12.23,-19.11 18.64,-29.11 19.18,-29.89 6.2,-9 11.74,-18.55 16.72,-28.62 1.16,-2.36 5.69,-12.44 13.67,-30.13zm-183.64 -250.07c9.48,6.9 18.28,13.24 26.58,18.9 8.18,5.73 18,11.31 29.4,16.74 3.96,1.88 10.97,5.89 21.1,12.04 10.06,6.12 18.53,10.81 25.26,14.02l35.81 17.97 159.18 75.89c-2.88,10.56 -5.15,19.99 -6.69,28.23 -1.6,8.2 -3.21,18.53 -5.01,31 -0.94,6.13 -1.7,12.11 -2.18,17.87 -0.27,4.07 -0.75,10.16 -1.35,18.27l-47.9 -26.79c-11.23,-5.35 -30.23,-16.64 -56.91,-33.7 -13.49,-8.66 -25.32,-15.38 -35.61,-20.28l-103.48 -49.34c-11.38,-5.43 -21.71,-10.92 -30.97,-16.4 -12.05,-7.8 -21.87,-13.88 -29.53,-18.45 2.91,-5.43 5.14,-10.04 6.67,-13.75 1.5,-3.73 2.83,-7.04 3.92,-10.06 3.81,-10.18 6.59,-22.68 8.3,-37.57 1.4,-11.09 2.5,-19.28 3.41,-24.59zm110.72 -246.01l68.1 25.79c19.53,7.13 41.68,15.37 66.46,24.74 24.79,9.35 38.52,14.53 41.21,15.5l23.44 8.56c14.81,5.41 25.91,9.62 33.22,12.59 7.28,2.99 17.59,7.53 30.99,13.75 6.24,2.28 10.97,4.16 14.13,5.8 9.06,5.19 16.41,9.21 21.92,12.08 2,3.48 3.91,6.94 5.82,10.4 2.94,5.47 5.22,11.49 6.82,17.98 2.44,9.31 4.05,15.71 4.89,19.17 1.5,7.32 2.47,14.51 2.87,21.66 -4.6,0.84 -9.24,1.59 -14.01,2.21 -1.03,0.26 -8.49,1.78 -22.29,4.53 -20.87,4.9 -41.65,9.75 -62.43,14.43 -15.75,3 -34.35,5.4 -55.69,7.38 -26.8,2.49 -45.25,4.34 -55.34,5.54 7.77,2.83 14.37,5.46 19.66,7.8 18.84,8.21 29.82,12.93 32.94,14.07 13.29,4.85 26.04,10.36 38.3,16.49 15.11,8.11 27.33,14.54 36.81,19.48l0.9 39.51 0.98 39.48c-7.88,-4.37 -15.32,-8.43 -22.48,-12.13 -7.11,-3.63 -15.99,-8.21 -26.56,-13.56 -5.93,-3.03 -14.05,-6.62 -24.34,-10.84 -10.32,-4.17 -19.44,-7.73 -27.43,-10.65 -5.88,-2.14 -11.82,-4.31 -17.84,-6.51 -6.1,-2.22 -12.21,-4.44 -18.45,-6.73 -11.53,-4.2 -22.48,-8.45 -32.87,-12.63 -10.38,-4.18 -20.62,-8.71 -30.63,-13.61 -10.02,-4.85 -19.56,-9.66 -28.56,-14.37 -5.02,-2.62 -13.85,-7.32 -26.55,-14.17l-37.7 3.39c1.43,-12.23 1.38,-25.31 -0.11,-39.21 -0.6,-7.23 -1.62,-13.91 -3.01,-20.07 -1.42,-6.12 -3.59,-13.03 -6.55,-20.64l45.66 -5.29 79.83 -9.9 112.16 -12.41 -82.67 -30.16c-9,-3.3 -17.53,-6.09 -25.59,-8.41 -23.9,-6.84 -37.81,-10.96 -41.73,-12.4l-29.56 -11.73c1.59,-9.97 2.78,-17.16 3.43,-21.56 1.18,-7.75 1.95,-14.72 2.36,-20.78 0.33,-6.09 0.5,-12.01 0.38,-17.8 0.04,-3.37 -0.28,-8.92 -0.89,-16.77zm99.23 -258.48c4.56,5.92 8.66,11.12 12.34,15.6 3.69,4.41 7.96,9.11 12.79,14.13 6.22,6.75 11.98,12.69 17.22,17.88 5.16,5.18 11.15,10.58 17.95,16.27 -1.77,11.88 -3.34,21.29 -4.8,28.36 -1.45,7.09 -3.85,16.22 -7.1,27.16 -0.64,2.13 -1.13,3.76 -1.46,4.88 -0.5,1.7 -0.9,3.05 -1.18,3.96 -0.46,1.56 -0.78,2.62 -0.94,3.18 -1.02,3.39 -2.23,6.95 -3.55,10.57 -1.32,3.62 -3,7.66 -5.1,11.99l63.07 24.38c2.31,-7.78 4.09,-15.09 5.22,-21.96 1.3,-9.48 2.49,-17.02 3.45,-22.7l4.73 -30c4.5,3.86 10.53,8.87 18.06,15.06 7.46,6.17 14.32,11.64 20.53,16.34l26.56 20.51 -13.05 43.88 16.3 5.21c3.67,0.98 6.76,2.02 9.35,3.08 8.86,3.65 13.85,5.65 15.12,5.98 2.84,0.75 5.68,1.51 8.54,2.26 2.92,0.77 5.77,1.52 8.61,2.29 1.98,-11 4.74,-22.47 8.32,-34.46 1.46,-4.96 3.82,-11.27 7.1,-19.01 3.27,-7.75 5.65,-14.13 7.14,-19.07 2.14,-7.21 4.76,-20.15 7.98,-38.81 1.59,-9.42 3.29,-17.13 5.04,-22.98 3.26,3.75 5.53,6.42 6.78,7.95 2.69,2.93 4.68,5.67 6.17,8.04 4.96,7.49 8.67,12.97 11.09,16.51 2.43,3.53 5.29,6.95 8.44,10.22 4.05,4.59 8.28,8.9 12.47,12.98 4.28,4.11 8.8,7.89 13.63,11.46 -2.3,7.77 -5.47,22.01 -9.45,42.69 -2.03,10.36 -4.1,19.18 -6.3,26.6 -3.07,10.33 -5.89,19.03 -8.61,26.23 -2.69,7.14 -9.31,23.99 -20.02,50.49l-11.68 27.32 -9.14 20.68c-12.4,-9.44 -23.4,-18.62 -32.97,-27.48 -1.51,-1.46 -5.46,-5.54 -11.92,-12.37 -3.54,-3.59 -6.79,-6.81 -9.89,-9.69 -3.84,-0.94 -6.86,-1.66 -9.11,-2.26 -2.25,-0.59 -3.88,-1.1 -5.13,-1.51 -3.22,-0.85 -6.2,-1.71 -9.02,-2.54 -2.75,-0.79 -6.38,-2.22 -10.82,-4.08 -4.45,-1.93 -8.87,-3.94 -13.21,-6.15 -4.28,-1.13 -7.68,-1.66 -10.24,-1.72l-12.36 29.28c-3.28,-3.32 -6.89,-6.93 -10.75,-10.86 -3.86,-3.83 -7.24,-7.46 -10.03,-10.8 -2.83,-3.27 -5.89,-7.12 -9.1,-11.48 -3.35,-4.3 -6.44,-8.86 -9.4,-13.53l-32.26 -10.06c-4.42,-1.17 -10.03,-3.27 -16.73,-6.25 -6.71,-2.99 -12.3,-5.15 -16.72,-6.33l-16.45 -2.82 -6.51 44.46 -24.91 -28.76 -21.84 -25.74c2.12,-16.66 4.19,-33.41 6.46,-50.27 2.7,-9.11 5.87,-18.41 9.58,-27.87 9.21,-23.63 14.69,-38.5 16.49,-44.57 5.48,-18.44 9.18,-34.38 11,-47.85 1.88,-13.37 3.27,-31.37 4.22,-53.9z"/>
  </g>
 </g>
</svg>
